<svg xmlns="http://www.w3.org/2000/svg" width="222" height="222"><path d="M13.5 16.5v14l-6.25.298-6.25.297v8.81l6.25.297 6.25.298.324 3.388c.178 1.864.057 4.451-.269 5.75C13.014 51.791 12.433 52 6.981 52H1v9h13v28l18.25-.06c19.455-.063 23.644-.528 34.584-3.84 9.796-2.965 20.638-13.257 23.544-22.35.451-1.411 1.726-1.75 6.591-1.75H103v-8.885l-4.25-.308-4.25-.307-.3-5.75-.3-5.75h9.1v-9h-5.453c-5.327 0-5.493-.087-7.183-3.75C85.649 17.032 77.899 9.669 67.83 5.843 60.584 3.09 57.052 2.754 34 2.619L13.5 2.5v14m8.967-5.273c-.303.787-.419 5.446-.258 10.352L22.5 30.5l29.25.265c16.088.146 29.25.011 29.25-.3C81 27.287 68.383 14 65.365 14c-.679 0-2.502-.519-4.05-1.154-4.843-1.984-5.433-2.053-22.057-2.558-13.496-.41-16.335-.251-16.791.939M116 45.713V52l3.75.015c5.899.023 15.707 2.682 22.451 6.086 7.274 3.672 16.478 12.548 19.598 18.899l2.21 4.5-6.165.5-6.165.5 9.816 12c5.399 6.6 9.918 12.134 10.041 12.297.216.285 16.61-23.433 17.297-25.025.184-.425-2.573-.772-6.125-.772-6.435 0-6.46-.011-7.084-3.13-1.053-5.264-6.717-14.02-13.205-20.413-9.979-9.833-23.867-16.092-38.495-17.349L116 39.427v6.286m-93.8.037l.3 5.75 30.636.264 30.636.265.648-3.455c.357-1.9.359-4.606.006-6.014L83.783 40H21.9l.3 5.75M22 70.61v9.609l18.25-.388c17.425-.372 18.521-.515 24.25-3.162 6.37-2.944 12.725-8.379 15.108-12.919L81.051 61H22v9.61m12 40.78c0 11.531 4.905 28.223 11.703 39.821 6.434 10.979 18.898 21.633 28.004 23.939l4.207 1.066.293 6.265.293 6.266 11.617-8.624c6.39-4.742 11.699-8.989 11.798-9.436.1-.447-5.128-4.878-11.617-9.848L78.5 151.804l-.3 5.598c-.347 6.475-1.108 6.81-6.81 2.999-12.858-8.593-22.466-25.5-23.917-42.085C46.435 106.454 46.797 107 39.981 107H34v4.39m117 6.953c-8.543 3.024-13.629 6.34-20.461 13.337-23.164 23.725-17.382 62.702 11.838 79.805 10.848 6.349 26.933 8.244 39.767 4.685 16.052-4.452 29.66-17.317 34.981-33.073 1.763-5.221 2.025-8.023 1.727-18.431-.338-11.8-.494-12.561-4.036-19.725-3.961-8.014-12.052-17.166-19.144-21.656-8.117-5.139-16.157-7.243-27.672-7.243-8.408 0-11.795.459-17 2.301m-1 14.869c-9.66 4.746-17.669 15.482-20.138 26.996-3.363 15.681 5.46 33.854 20.017 41.231 6.647 3.368 8.121 3.304 8.121-.35 0-2.439-.695-3.247-4.29-4.987-5.632-2.727-12.1-9.222-14.918-14.982-3.301-6.746-3.658-17.781-.819-25.341 2.465-6.563 8.358-13.16 15.04-16.836 3.379-1.859 4.565-3.145 4.803-5.206.4-3.457-1.577-3.59-7.816-.525m28.17.384c.255 2.226 1.347 3.438 4.817 5.347 6.682 3.676 12.575 10.273 15.04 16.836 2.839 7.56 2.482 18.595-.819 25.341-2.818 5.76-9.286 12.255-14.918 14.982-3.595 1.74-4.29 2.548-4.29 4.987 0 3.654 1.474 3.718 8.121.35 7.085-3.59 13.487-10.384 17.186-18.238 2.761-5.861 3.159-7.767 3.175-15.201.021-10-2.038-16.551-7.462-23.739-4.181-5.541-13.066-11.959-17.85-12.893-3.201-.625-3.317-.539-3 2.228m-12.461 9.028c-.39.39-.709 1.673-.709 2.85 0 1.538-1.13 2.64-4.015 3.913-6.267 2.765-8.534 8.716-5.532 14.522 1.562 3.02 4.694 4.626 11.047 5.663 5.494.896 8.5 2.976 8.5 5.88 0 3.527-2.576 5.548-7.071 5.548-3.767 0-7.929-2.589-7.929-4.933 0-1.661-4.148-2.349-5.545-.92-2.373 2.43.734 7.607 5.95 9.914 3.515 1.555 4.533 2.557 4.78 4.707.25 2.164.835 2.732 2.815 2.732 1.987 0 2.565-.567 2.818-2.765.234-2.032 1.183-3.126 3.582-4.129 4.836-2.02 7.6-6.077 7.6-11.152 0-5.562-3.657-8.83-11.74-10.493-3.168-.652-6.547-1.6-7.51-2.108-2.458-1.297-2.191-5.431.473-7.296 3.392-2.376 6.66-1.894 9.777 1.443 2.764 2.959 6.312 3.922 7.482 2.029 1.13-1.828-2.592-7.177-5.981-8.593-2.498-1.044-3.447-2.119-3.683-4.171-.312-2.71-3.429-4.321-5.109-2.641" fill="undefined" fill-rule="evenodd"/></svg>